<?xml version="1.0" encoding="UTF-8"?><svg xmlns="http://www.w3.org/2000/svg" xmlns:xlink="http://www.w3.org/1999/xlink" height="204.7" preserveAspectRatio="xMidYMid meet" version="1.0" viewBox="0.0 -6.7 496.0 204.7" width="496.0" zoomAndPan="magnify"><g><g id="change1_1"><path d="M112.16,197.97c-15.95,0-33.88-21.82-52.8-44.84c-13.22-16.09-26.9-32.72-36.77-36.79l-15.9-6.55 l17.16-1.14c1.84-0.13,45.79-2.47,91.17,44.56c1.53,1.59,1.49,4.12-0.1,5.66c-1.59,1.53-4.12,1.49-5.66-0.1 c-27.44-28.44-54.55-37.74-70.5-40.74c8.38,7.65,17.41,18.63,26.77,30.02c16.91,20.57,36.06,43.89,48.14,41.79 c4.49-0.78,8.34-5.57,11.44-14.24c3.61-10.08,7.46-19.26,11.43-27.55c-17.1-2.18-30.93-11.22-41.28-27.06 c-12.42-19-17.59-44.25-21.36-62.69c-0.58-2.84-1.13-5.53-1.67-8.02C64.69,15.52,25.6,13.39,23.94,13.32L0,12.26l22.98-6.77 c1.71-0.5,42.15-12.17,72.71,0.13c24.48,9.85,48.53,40.54,57.65,53.15c4.25-6.11,11.04-11.06,19.19-13.8 c14.07-4.73,27.77-1.57,36.63,8.46c3.48,3.93,6.27,8.51,8.17,13.37l27.55,0.51l-28.96,28.96c-1.56,1.56-4.09,1.56-5.66,0 c-1.56-1.56-1.56-4.09,0-5.66l15.65-15.65l-14.38-0.26l-0.87-2.74c-1.5-4.75-4.17-9.45-7.51-13.23c-6.76-7.65-17-9.9-28.09-6.17 c-8.51,2.86-15.06,8.56-17.52,15.24l-2.72,7.39l-4.36-6.56c-0.29-0.44-29.65-44.27-57.77-55.58C76.96,6.7,57.67,7.5,43.76,9.44 c1.58,0.56,3.21,1.19,4.85,1.91c16.88,7.39,27.75,20.26,31.43,37.23c0.55,2.52,1.1,5.24,1.69,8.12 c3.64,17.81,8.64,42.2,20.22,59.92c9.62,14.71,22.28,22.59,38.41,23.8c14.65-27.99,30.46-44.16,41.89-48.3 c5.85-2.12,9.89-0.92,12.24,0.47c3.97,2.33,7.96,7.74,4.48,20.27c-4.78,17.2-18.93,30.17-36.92,33.87 c-5.87,1.21-11.47,1.82-16.79,1.85c-4.43,8.88-8.7,18.82-12.61,29.73c-4.2,11.74-9.96,18.1-17.6,19.43 C114.09,197.89,113.13,197.97,112.16,197.97z M188.29,98.96c-1.15,0-2.35,0.32-3.32,0.67c-9.39,3.4-22.78,17.76-35.45,40.78 c3.49-0.24,7.13-0.75,10.91-1.53c15.04-3.09,26.85-13.89,30.83-28.18c0.96-3.45,2.13-9.49-0.83-11.23 C189.8,99.1,189.06,98.96,188.29,98.96z" fill="#CBA35C"/></g><g id="change1_2"><path d="M383.6,197.97c-0.97,0-1.93-0.08-2.89-0.25c-7.64-1.33-13.4-7.68-17.6-19.43 c-3.91-10.91-8.18-20.85-12.61-29.73c-5.32-0.02-10.92-0.64-16.79-1.85c-17.99-3.7-32.14-16.68-36.92-33.87 c-3.48-12.53,0.51-17.94,4.48-20.27c2.35-1.38,6.38-2.59,12.24-0.47c11.43,4.14,27.23,20.31,41.88,48.3 c16.13-1.21,28.79-9.09,38.41-23.8c11.58-17.72,16.58-42.11,20.22-59.92c0.59-2.87,1.14-5.59,1.69-8.12 c3.68-16.96,14.55-29.84,31.43-37.23c1.65-0.72,3.27-1.35,4.85-1.91c-13.91-1.93-33.2-2.74-48.94,3.6 c-28.15,11.33-57.48,55.14-57.77,55.58l-4.36,6.57l-2.73-7.4c-2.46-6.68-9.01-12.38-17.52-15.24 c-11.09-3.73-21.33-1.48-28.09,6.17c-3.34,3.78-6.01,8.48-7.51,13.23l-0.87,2.74l-14.38,0.26l15.65,15.65 c1.56,1.56,1.56,4.1,0,5.66c-1.56,1.56-4.1,1.56-5.66,0l-28.96-28.96l27.55-0.51c1.9-4.86,4.7-9.44,8.17-13.37 c8.86-10.02,22.55-13.19,36.63-8.46c8.15,2.74,14.94,7.69,19.19,13.8c9.12-12.61,33.17-43.3,57.65-53.15 c30.56-12.3,71-0.63,72.71-0.13l23.2,6.83l-24.16,1c-1.65,0.07-40.74,2.2-48.28,36.95c-0.54,2.49-1.09,5.19-1.67,8.02 c-3.77,18.44-8.94,43.69-21.36,62.69c-10.35,15.84-24.18,24.88-41.28,27.06c3.97,8.29,7.82,17.47,11.43,27.55 c3.1,8.67,6.95,13.46,11.44,14.24c12.06,2.1,31.23-21.22,48.14-41.79c9.36-11.39,18.39-22.38,26.77-30.02 c-15.95,3.01-43.05,12.3-70.5,40.75c-1.53,1.59-4.07,1.63-5.66,0.1c-1.59-1.53-1.63-4.07-0.1-5.66 c45.38-47.04,89.32-44.69,91.17-44.56l17.16,1.14l-15.9,6.55c-9.87,4.06-23.54,20.7-36.76,36.79 C417.48,176.15,399.55,197.97,383.6,197.97z M307.46,98.96c-0.76,0-1.5,0.14-2.14,0.51c-2.96,1.74-1.79,7.78-0.83,11.23 c3.97,14.29,15.79,25.09,30.83,28.18c3.78,0.78,7.42,1.29,10.91,1.53c-12.67-23.02-26.06-37.38-35.45-40.78 C309.81,99.28,308.61,98.96,307.46,98.96z" fill="#CBA35C"/></g><g id="change1_3"><path d="M248.09,190.6l-2.78-2.9l-32.73-32.73l0.01-0.01l-2.6-2.6c-9.78-9.78-9.78-25.71,0-35.49 c4.74-4.74,11.04-7.35,17.75-7.35c6.7,0,13.01,2.61,17.75,7.35l2.67,2.67l2.67-2.67c9.79-9.79,25.71-9.79,35.49,0 c9.79,9.78,9.79,25.71,0,35.49l-2.67,2.67h0l-2.82,2.84L248.09,190.6z M224.03,155.11l24.11,24.11l0.07-0.07l0.01,0.01 l32.43-32.46c6.67-6.67,6.67-17.51,0-24.18c-3.23-3.23-7.52-5.01-12.09-5.01c-4.57,0-8.86,1.78-12.09,5.01l-8.32,8.32l-8.32-8.32 c-3.23-3.23-7.52-5.01-12.09-5.01c-4.57,0-8.86,1.78-12.09,5.01c-6.67,6.67-6.67,17.51,0,24.18l8.39,8.39L224.03,155.11z" fill="#CBA35C"/></g></g></svg>